<svg width="315" height="429" viewBox="0 0 315 429" fill="none" xmlns="http://www.w3.org/2000/svg">
<g clip-path="url(#clip0_5:18)">
<path d="M17.8576 197.777H160.642C161.138 197.777 161.614 197.962 161.965 198.291C162.315 198.62 162.512 199.066 162.512 199.531V209.851C162.512 210.316 162.315 210.762 161.965 211.091C161.614 211.42 161.138 211.605 160.642 211.605H86.3545V236.465" stroke="#252525" stroke-width="5" stroke-miterlimit="10"/>
<path d="M34.7069 12.0773L27.6011 60.8902C25.816 73.1069 27.8279 85.5471 33.3954 96.7179L43.7819 117.477C50.6831 131.271 62.5967 142.046 77.1845 147.689L108.545 159.821L34.7069 12.0773Z" fill="white" stroke="#252525" stroke-width="5" stroke-miterlimit="10"/>
<path d="M58.3734 197.825H15.7825C6.10476 197.825 -0.99007 188.917 1.37 179.717L21.0981 117.111C22.9248 109.977 29.479 104.978 36.9903 104.978" stroke="#252525" stroke-width="5" stroke-miterlimit="10"/>
<path d="M111.252 162.576C110.847 162.573 110.452 162.462 110.113 162.255C109.773 162.048 109.505 161.754 109.338 161.408L34.1516 10.9021C33.4575 9.51453 34.4914 7.89737 36.066 7.89737C36.473 7.89852 36.8711 8.00923 37.2131 8.21633C37.555 8.42343 37.8264 8.71823 37.9949 9.0657L113.166 159.571C113.861 160.959 112.827 162.576 111.252 162.576Z" fill="white" stroke="#252525" stroke-width="5" stroke-miterlimit="10"/>
<path d="M64.3211 196.944C67.3577 196.944 69.8194 194.636 69.8194 191.788C69.8194 188.94 67.3577 186.631 64.3211 186.631C61.2844 186.631 58.8228 188.94 58.8228 191.788C58.8228 194.636 61.2844 196.944 64.3211 196.944Z" stroke="#252525" stroke-width="5" stroke-miterlimit="10"/>
<path d="M58.841 192.48C58.7424 189.335 60.9527 186.724 64.3211 186.631L64.8545 186.614C66.2841 186.575 67.7131 186.708 69.107 187.008L113.594 196.663" stroke="#252525" stroke-width="5" stroke-miterlimit="10"/>
<path d="M314.116 145.819L278.799 267.859C277.009 274.056 273.093 279.527 267.657 283.428C262.221 287.329 255.566 289.444 248.721 289.444H129.095" stroke="#252525" stroke-width="5" stroke-miterlimit="10"/>
<path d="M138.766 289.431L235.192 426.622" stroke="#252525" stroke-width="5" stroke-miterlimit="10" stroke-linecap="round"/>
<path d="M244.326 289.431L139.131 427.993" stroke="#252525" stroke-width="5" stroke-miterlimit="10" stroke-linecap="round"/>
<path d="M140.351 379.803C140.351 379.803 135.335 386.998 126.625 385.991L120.736 378.087C126.811 376.862 132.756 375.126 138.499 372.9C139.098 375.527 139.723 377.936 140.351 379.803Z" fill="#FFCFC9"/>
<path d="M264.503 254.309C260.974 261.72 249.218 280.975 222.175 281.773C188.652 282.763 126.976 279.796 126.976 279.796C126.976 279.796 141.082 332.066 141.385 371.676C141.385 371.676 130.268 376.966 113.766 379.289C113.766 379.289 54.5812 275.476 66.3341 250.095C75.0802 231.213 141.557 223.871 171.606 221.5C184.093 228.29 225.643 249.571 264.503 254.309Z" fill="#252525"/>
<path d="M140.351 379.803C140.351 379.803 146.445 386.087 153.171 391.076C157.431 394.234 155.757 400.326 152.13 405.445C146.674 413.121 140.62 420.408 134.016 427.246C134.016 427.246 124.58 428.181 106.214 427.475C106.214 427.475 105.527 421.363 112.019 418.602C126.815 412.308 130.147 395.646 126.633 386.008C126.625 385.991 134.016 387.228 140.351 379.803Z" fill="#058C42"/>
<path d="M156.068 392.861C157.836 396.379 155.206 401.669 152.495 405.445C152.495 405.445 142.419 418.619 134.747 427.571L105.849 427.801" stroke="#252525" stroke-width="7" stroke-miterlimit="10" stroke-linecap="round"/>
<path d="M124.755 413.997C124.755 413.997 118.088 409.906 122.928 407.405" stroke="#252525" stroke-width="5" stroke-miterlimit="10" stroke-linecap="round"/>
<path d="M128.408 410.228C128.408 410.228 120.28 406.137 125.12 403.636" stroke="#252525" stroke-width="5" stroke-miterlimit="10" stroke-linecap="round"/>
<path d="M227.012 81.7866C227.012 81.7866 257.628 73.8755 259.794 50.3821C260.163 46.4043 227.012 81.7866 227.012 81.7866Z" fill="#037034"/>
<path d="M227.382 35.8688C227.382 35.8688 240.596 61.781 252.754 71.4532C252.754 71.4532 233.344 83.5579 217.05 83.551C217.05 83.551 206.382 65.9336 201.961 59.1943L227.382 35.8688Z" fill="#FFCFC9"/>
<path d="M211.953 75.1877C208.581 69.6818 204.354 62.8534 201.961 59.1943L221.302 41.4569L222.628 43.934C224.039 55.8092 220.506 68.767 211.953 75.1877Z" fill="#FFC0B7"/>
<path d="M223.14 41.0492C223.14 41.0492 223.081 50.9851 219.052 56.4842C213.981 63.4085 201.074 70.8741 191.25 69.5037C181.426 68.1332 172.859 21.4719 180.228 18.7104C187.596 15.9489 208.183 13.4135 214.321 21.9276C220.458 30.4417 223.14 41.0492 223.14 41.0492Z" fill="#FFCFC9"/>
<path d="M233.45 46.8086C233.45 46.8086 229.172 47.4527 222.954 44.7768C223.147 42.5978 223.235 38.1232 220.831 36.8349C218.208 35.4302 216.71 39.3943 216.246 40.895C215.686 40.4884 215.12 40.051 214.547 39.5827C204.318 31.2468 206.981 23.0856 206.981 23.0856C206.981 23.0856 191.761 31.4798 177.261 30.9248C165.227 30.4657 159.334 14.6709 169.479 9.96334C169.479 9.96334 168.749 14.2906 177.604 12.2178C186.46 10.1449 184.739 1.71307 197.15 0.229531C212.443 -1.58292 215.603 7.9179 215.603 7.9179C215.603 7.9179 222.928 4.30327 230.469 10.8781C238.502 17.8847 228.123 37.4414 233.45 46.8086Z" fill="#252525"/>
<path d="M208.545 21.5644C208.545 21.5644 194.319 32.2062 178.858 34.094C164.313 35.8688 157.942 18.2547 167.824 11.8683" stroke="#252525" stroke-width="4" stroke-miterlimit="10"/>
<path d="M214.288 8.62713C214.288 8.62713 219.26 1.99403 228.675 5.88618" stroke="#252525" stroke-width="4" stroke-miterlimit="10"/>
<path d="M267.718 254.665C279.117 244.195 293.635 178.162 289.843 135.828C289.606 131.008 288.853 126.223 287.596 121.544C286.95 118.789 286.084 116.084 285.006 113.451C281.718 105.571 274.199 97.3483 263.743 91.7328C253.087 84.5755 239.182 79.6246 220.754 82.5163C193.325 86.8196 186.957 112.499 185.481 124.189L185.459 124.169L178.017 163.405L123.714 165.327V181.985C123.714 181.985 168.274 207.476 199.839 200.089L200.116 200.021C185.138 213.76 167.85 219.413 167.85 219.413C167.85 219.413 220.447 250.016 267.718 254.665Z" fill="#058C42"/>
<path d="M226.508 146.422C226.508 146.422 216.111 195.536 196.781 201.803" stroke="white" stroke-width="5" stroke-miterlimit="10" stroke-linecap="round"/>
<path d="M227.012 81.7865C235.485 80.7587 257.934 67.3726 259.776 49.7517C259.776 49.7517 293.529 81.7865 281.166 107.384C281.166 107.384 274.283 95.3919 259.4 88.1044C241.586 79.3916 227.012 81.7865 227.012 81.7865Z" fill="#058C42"/>
<path d="M284.151 108.771C284.151 108.771 273.922 96.019 259.399 88.1045C239.069 77.0207 214.058 82.8281 214.058 82.8281" stroke="white" stroke-width="5" stroke-miterlimit="10" stroke-linecap="round"/>
<path d="M123.889 176.065C123.889 176.065 118.493 184.065 112.75 182.917C107.007 181.77 101.662 180.982 98.7503 182.386C95.1518 184.123 91.5788 187.957 89.2297 187.885C86.3859 187.816 83.5828 187.234 80.9731 186.172C82.4512 183.347 84.0803 180.593 85.854 177.922C83.8629 179.104 81.2215 181.53 79.7602 182.448C77.422 183.921 75.7853 181.824 75.7853 181.824C75.7853 181.824 79.8259 176.442 81.5941 175.041C83.2929 173.694 89.4233 169.518 92.0975 169.148C95.3089 168.431 111.153 166.256 123.926 165.437L123.889 176.065Z" fill="#FFCFC9"/>
<path d="M83.9542 186.248C83.9542 186.248 91.1184 176.408 93.1095 175.716C96.6167 174.499 101.191 172.892 101.191 172.892" stroke="#F7B3AF" stroke-width="4" stroke-miterlimit="10" stroke-linecap="round"/>
<path d="M87.4432 187.138C87.4432 187.138 93.9169 178.916 95.9043 178.23C99.4116 177.014 103.989 175.404 103.989 175.404" stroke="#F7B3AF" stroke-width="4" stroke-miterlimit="10" stroke-linecap="round"/>
</g>
<defs>
<clipPath id="clip0_5:18">
<rect width="315" height="429" fill="white"/>
</clipPath>
</defs>
</svg>
